# xmcd
#
# Track frame offsets:
#	150
#	12210
#	25028
#	45648
#	63559
#	81371
#	92045
#	113574
#	135177
#	160694
#	181154
#	199801
#
# Disc length: 2840 seconds
#
# Revision: 0
# Processed by: cddbd v1.5.2PL0 Copyright (c) Steve Scherf et al.
# Submitted via: EasyCDDAExtractor 2010.4.0.0
#
DISCID=8b0b160c
DTITLE=Ulf Christiansson - Julens Psalmer
DYEAR=2008
DGENRE=
TTITLE0=Nu tändas tusen juleljus
TTITLE1=Hosianna
TTITLE2=Det är en ros utsprungen
TTITLE3=Dagen är kommen (Come All Ye Faithfull)
TTITLE4=Stilla natt
TTITLE5=Fröjdas vart sinne
TTITLE6=Gå Sion din konung att möta
TTITLE7=Var hälsad sköna morgonstund
TTITLE8=Oh helga natt
TTITLE9=Vem är barnet
TTITLE10=Vid Betlehem en vinternatt
TTITLE11=Jul, jul, strålande jul
EXTD=
EXTT0=
EXTT1=
EXTT2=
EXTT3=
EXTT4=
EXTT5=
EXTT6=
EXTT7=
EXTT8=
EXTT9=
EXTT10=
EXTT11=
PLAYORDER=
